<?xml version="1.0" encoding="utf-8"?>
<!-- Generator: Adobe Illustrator 20.1.0, SVG Export Plug-In . SVG Version: 6.00 Build 0)  -->
<svg version="1.1" id="Layer_1" xmlns="http://www.w3.org/2000/svg" xmlns:xlink="http://www.w3.org/1999/xlink" x="0px" y="0px"
	 viewBox="0 0 128 128" style="enable-background:new 0 0 128 128;" xml:space="preserve">
<style type="text/css">
	.st0{fill:#35BDB2;}
	.st1{fill:#FFFFFF;}
</style>
<rect y="0" class="st0" width="128" height="128"/>
<g>
	<path class="st1" d="M113.3,78.8c0,5.3-1.9,9.9-5.7,13.6c-3.8,3.8-8.3,5.6-13.6,5.6H39.4c-6.2,0-11.5-2.2-15.9-6.6
		c-4.4-4.4-6.6-9.7-6.6-15.9c0-4.4,1.2-8.5,3.6-12.1c2.4-3.7,5.5-6.4,9.4-8.2c-0.1-0.9-0.1-1.7-0.1-2.2c0-7.1,2.5-13.2,7.5-18.2
		c5-5,11.1-7.5,18.2-7.5c5.3,0,10.1,1.5,14.4,4.4c4.3,2.9,7.4,6.8,9.4,11.6c2.3-2.1,5.1-3.1,8.3-3.1c3.5,0,6.6,1.3,9.1,3.8
		c2.5,2.5,3.8,5.5,3.8,9.1c0,2.5-0.7,4.8-2.1,6.9c4.3,1,7.9,3.3,10.7,6.8S113.3,74.2,113.3,78.8z"/>
</g>
</svg>
