<?xml version="1.0" encoding="utf-8"?>
<!-- Generator: Adobe Illustrator 20.1.0, SVG Export Plug-In . SVG Version: 6.00 Build 0)  -->
<svg version="1.1" id="Layer_1" xmlns="http://www.w3.org/2000/svg" xmlns:xlink="http://www.w3.org/1999/xlink" x="0px" y="0px"
	 viewBox="0 0 429.7 96.7" style="enable-background:new 0 0 429.7 96.7;" xml:space="preserve">
<style type="text/css">
	.st0{fill:#19AADB;}
	.st1{fill:url(#SVGID_1_);}
	.st2{fill:url(#SVGID_2_);}
	.st3{fill:url(#SVGID_3_);}
	.st4{opacity:0.2;}
	.st5{fill:url(#SVGID_4_);}
	.st6{fill:#FFFFFF;}
</style>
<g>
	<g>
		<g>
			<path class="st0" d="M104.8,29.1c2.9,7.1,13.3,7.1,16.2,0l0.2-0.4c0.7-2,0.7-4.2-0.1-6.3l-8.1-19.6l-8.1,19.6
				c-0.9,2.1-0.9,4.4-0.1,6.3L104.8,29.1z"/>
			<linearGradient id="SVGID_1_" gradientUnits="userSpaceOnUse" x1="2.0968" y1="46.9251" x2="78.4546" y2="74.7171">
				<stop  offset="0.2349" style="stop-color:#D51F2A"/>
				<stop  offset="1" style="stop-color:#F68839"/>
			</linearGradient>
			<path class="st1" d="M78.1,40.9c-3.7,0-6.9,2.2-8.4,5.4L69.4,47l-5,12l-8.8-21.2c-3-7.1-13.4-7.1-16.4,0L30.5,59l-8.8-21.2
				c-1.8-4.5-7.1-6.6-11.6-4.8c-4.5,1.8-6.6,7.1-4.8,11.6l16.9,40.9c2.9,7.2,13.5,7.2,16.4,0l8.7-21.1l8.6,20.8
				c2.8,7.6,13.9,7.6,16.7,0l7.7-18.6l4.1-9.8l2.8-6.7C87.4,45,83.2,40.9,78.1,40.9z"/>
			<g>
				<linearGradient id="SVGID_2_" gradientUnits="userSpaceOnUse" x1="69.7194" y1="61.742" x2="140.5604" y2="61.742">
					<stop  offset="0.4257" style="stop-color:#FDB930"/>
					<stop  offset="0.869" style="stop-color:#85C441"/>
				</linearGradient>
				<path class="st2" d="M122.9,82.4c-9.8,0-17.7-7.9-17.7-17.7c0-0.2,0-0.3,0-0.5v-14c0-8-5.5-15.1-13.2-17.2
					c-8.3-2.2-17.3,2-20.8,9.9l-0.4,0.9l-1,2.5c1.5-3.2,4.7-5.4,8.4-5.4c5.1,0,9.2,4.1,9.3,9.2l0,0l0,14.3
					c0,13.9,11.2,25.8,25.1,26.6c13.8,0.8,26.3-9.7,27.9-23.4c0.1-0.6,0.1-1.2,0.1-1.8C140,75.1,132.3,82.4,122.9,82.4z"/>
				<linearGradient id="SVGID_3_" gradientUnits="userSpaceOnUse" x1="122.8618" y1="82.4149" x2="122.8618" y2="32.393">
					<stop  offset="0" style="stop-color:#19AADB"/>
					<stop  offset="0.9949" style="stop-color:#1756A7"/>
				</linearGradient>
				<path class="st3" d="M131.7,32.4C131.7,32.4,131.7,32.4,131.7,32.4c-4.9,0-8.9,4-8.9,8.9v5.7v17.5c0,4.8-4,8.9-8.9,8.9
					c-4.8,0-8.9-4-8.9-8.9v-0.3c0,0.2,0,0.3,0,0.5c0,9.8,7.9,17.7,17.7,17.7c9.4,0,17.1-7.4,17.7-16.6c0-0.4,0-0.8,0-1.2
					c0,0,0-0.1,0-0.1V41.3C140.6,36.4,136.6,32.4,131.7,32.4z"/>
			</g>
		</g>
		<g class="st4">
			<linearGradient id="SVGID_4_" gradientUnits="userSpaceOnUse" x1="80.0279" y1="41.0917" x2="75.4087" y2="56.4459">
				<stop  offset="0" style="stop-color:#000000"/>
				<stop  offset="0.8713" style="stop-color:#F3F3F4"/>
				<stop  offset="1" style="stop-color:#FFFFFF"/>
			</linearGradient>
			<path class="st5" d="M87.4,50.2c0-5.1-4.2-9.2-9.3-9.2c-3.7,0-6.9,2.2-8.4,5.4L69.4,47l-4.7,11.3H84l0.6-1.4L87.4,50.2z"/>
		</g>
	</g>
	<g>
		<g>
			<g>
				<g>
					<path class="st6" d="M322.9,54.7c0-0.1,0-0.2,0-0.2c-0.2-2.4-2-4.4-3.7-6.1c-0.3-0.3-0.8-0.7-1.3-1.2c0.8-0.2,1.6-0.6,2.4-1.3
						c1.7-1.4,2.7-3.3,2.7-5.7c0-2.6-1-4.7-2.7-5.9c-1.6-1.1-3.6-1.4-5.8-1.4h-8.2c-0.7,0-1.3,0.4-1.6,0.9c-0.2,0.3-0.3,0.6-0.3,1
						v20c0,0.3,0.1,0.6,0.2,0.8c0.3,0.6,1,1,1.7,1c1,0,1.9-0.8,1.9-1.9v-7.1h4.8c0.5,0.4,1,0.8,1.5,1.2c2.4,1.9,4.9,4.2,4.9,6
						c0,0.9,0.8,1.7,1.8,1.8c0,0,0,0,0.1,0C322.2,56.6,322.9,55.8,322.9,54.7C322.9,54.8,322.9,54.8,322.9,54.7z M314.6,44.4
						c-0.2,0-0.4,0-0.6,0h-5.3h-0.6v-0.5v-4.7v-3h5.9c1.3,0,2.4,0.1,3.4,0.7c1,0.7,1.7,1.7,1.7,3.4c0,1.7-0.7,2.8-1.7,3.4
						C316.5,44.1,315.6,44.3,314.6,44.4z"/>
				</g>
			</g>
			<path class="st6" d="M188.8,33.8c0.2-0.8,1-1.3,1.9-1.3c1.1,0,2,0.7,2,1.9c0,0.2-0.1,0.6-0.2,0.8l-6.4,19.4c-0.3,1.1-1.2,2-2.8,2
				c-1.5,0-2.4-0.9-2.8-2l-5.2-14.8l-5.1,14.8c-0.3,1.1-1.2,2-2.8,2c-1.5,0-2.4-0.9-2.7-2l-6.5-19.5c-0.1-0.2-0.1-0.5-0.1-0.7
				c0-1,0.9-1.9,2-1.9c1,0,1.7,0.6,1.9,1.4l5.5,17.7l5.8-17.6c0.2-0.8,0.9-1.5,2.1-1.5c1.2,0,1.8,0.6,2,1.5l5.9,17.6L188.8,33.8z"/>
			<path class="st6" d="M198.9,52.9h13.3c0.9,0,1.7,0.8,1.7,1.7c0,1-0.7,1.7-1.7,1.7H197c-1.1,0-1.9-0.8-1.9-1.9V34.7
				c0-1,0.9-1.9,1.9-1.9h15.3c0.9,0,1.7,0.8,1.7,1.7s-0.7,1.7-1.7,1.7h-13.3v8.1h11.2c0.9,0,1.7,0.8,1.7,1.7c0,1-0.7,1.7-1.7,1.7
				h-11.2V52.9z"/>
			<path class="st6" d="M230.8,51H221l-1.6,4.3c-0.3,0.9-0.9,1.3-1.9,1.3c-1.2,0-1.8-0.8-1.8-1.8c0-0.2,0.1-0.7,0.2-0.9l7.5-19.5
				c0.4-1.1,1.1-2,2.7-2c1.6,0,2.3,0.9,2.7,2l7.4,19.5c0.1,0.2,0.2,0.7,0.2,0.9c0,1.1-0.8,1.8-1.9,1.8c-0.9,0-1.6-0.5-1.9-1.3
				L230.8,51z M222,47.9h7.9l-3.9-10.5L222,47.9z"/>
			<path class="st6" d="M245.3,36.2v18.5c0,1-0.9,1.9-1.9,1.9c-1.1,0-1.9-0.8-1.9-1.9V36.2H235c-0.9,0-1.7-0.8-1.7-1.7
				s0.8-1.7,1.7-1.7h16.7c0.9,0,1.7,0.8,1.7,1.7s-0.8,1.7-1.7,1.7H245.3z"/>
			<path class="st6" d="M255.5,34.4c0-1,0.9-1.9,1.9-1.9c1.1,0,1.9,0.8,1.9,1.9v10h13.7v-10c0-1,0.9-1.9,1.9-1.9
				c1.1,0,1.9,0.8,1.9,1.9v20.4c0,1-0.9,1.9-1.9,1.9c-1,0-1.9-0.8-1.9-1.9v-7h-13.7v7c0,1-0.9,1.9-1.9,1.9c-1.1,0-1.9-0.8-1.9-1.9
				V34.4z"/>
			<path class="st6" d="M285.3,52.9h13.3c0.9,0,1.7,0.8,1.7,1.7c0,1-0.7,1.7-1.7,1.7h-15.3c-1.1,0-1.9-0.8-1.9-1.9V34.7
				c0-1,0.9-1.9,1.9-1.9h15.3c0.9,0,1.7,0.8,1.7,1.7s-0.7,1.7-1.7,1.7h-13.3v8.1h11.2c0.9,0,1.7,0.8,1.7,1.7c0,1-0.7,1.7-1.7,1.7
				h-11.2V52.9z"/>
		</g>
		<g>
			<path class="st6" d="M173,85.6c1-1.1,1.4-2.7,1.4-4.7V68.8c0-1,0.9-1.9,1.9-1.9c1.1,0,1.9,0.8,1.9,1.9v12.6c0,2.7-0.7,5-2.2,6.6
				c-1.7,2-4.4,3-7.9,3c-3.4,0-6.1-1.1-7.9-3c-1.4-1.6-2.2-3.9-2.2-6.6V68.8c0-1,0.9-1.9,1.9-1.9c1.1,0,1.9,0.8,1.9,1.9v12.1
				c0,2,0.5,3.6,1.4,4.7c1.1,1.3,2.7,1.9,4.7,1.9C170.2,87.5,171.9,86.9,173,85.6z"/>
			<path class="st6" d="M193.3,81.3c-1.7-1.2-3.3-2.5-4.8-3.9c-0.9-0.8-1.7-1.6-2.4-2.4v14.3c0,1-0.8,1.8-1.8,1.8
				c-1,0-1.9-0.8-1.9-1.8V68.7c0-1,0.8-1.8,1.9-1.8c1,0,1.8,0.8,1.8,1.8c0,2.3,3.5,5.1,7.4,8c1.6,1.2,3.2,2.6,4.8,4
				c0.9,0.8,1.7,1.6,2.4,2.4V68.7c0-1,0.8-1.8,1.9-1.8c1,0,1.8,0.8,1.8,1.8v20.6c0,1-0.8,1.8-1.8,1.8c-1,0-1.9-0.9-1.9-1.8
				C200.8,86.8,196.2,83.4,193.3,81.3z"/>
			<path class="st6" d="M226.5,88c-2.7,2.2-6,2.7-9.1,2.7h-6.6c-1.1,0-1.9-0.8-1.9-1.9V69.1c0-1,0.9-1.9,1.9-1.9h7.1
				c3.8,0,7.1,0.8,9.7,3.7c1.7,1.8,2.8,4.5,2.8,8.1C230.3,83.2,228.8,86.1,226.5,88z M212.6,87.5h4.4c2.7,0,4.9-0.6,6.6-2
				c1.8-1.4,2.8-3.5,2.8-6.5c0-2.6-0.8-4.5-2-5.9c-1.6-1.8-4.1-2.6-7.2-2.6h-4.6V87.5z"/>
			<path class="st6" d="M237.1,87.3h13.3c0.9,0,1.7,0.8,1.7,1.7c0,1-0.7,1.7-1.7,1.7h-15.3c-1.1,0-1.9-0.8-1.9-1.9V69.1
				c0-1,0.9-1.9,1.9-1.9h15.3c0.9,0,1.7,0.8,1.7,1.7c0,0.9-0.7,1.7-1.7,1.7h-13.3v8.1h11.2c0.9,0,1.7,0.8,1.7,1.7
				c0,1-0.7,1.7-1.7,1.7h-11.2V87.3z"/>
			<path class="st6" d="M299.6,78.8c0.9,0,1.7,0.6,1.7,1.8c0,3.1-1.3,5.8-3.4,7.6c-2,1.7-4.8,2.8-8.1,2.8c-7.1,0-12.6-4.3-12.6-12.1
				c0-7.1,5.7-12,12.8-12c2.4,0,4.2,0.4,5.8,1c1.1,0.4,2,1.1,2,2.1c0,1-0.8,1.8-1.9,1.8c-0.8,0-1.3-0.5-2.8-1
				c-0.9-0.2-1.9-0.4-3.1-0.4c-4.8,0-8.7,3.6-8.7,8.5c0,5.2,3.7,8.6,8.7,8.6c1.8,0,3.4-0.4,4.7-1.3c1.4-0.9,2.3-2.3,2.6-4.1H291
				c-0.9,0-1.7-0.8-1.7-1.7c0-0.9,0.8-1.7,1.7-1.7H299.6z"/>
			<path class="st6" d="M337.6,91.1c-6.8,0-12.4-5.1-12.4-12c0-7,5.6-12.1,12.4-12.1c6.7,0,12.4,5.1,12.4,12.1
				C350,86,344.3,91.1,337.6,91.1z M337.6,70.6c-4.7,0-8.3,3.8-8.3,8.5c0,4.7,3.6,8.4,8.3,8.4c4.8,0,8.3-3.7,8.3-8.4
				C345.9,74.3,342.3,70.6,337.6,70.6z"/>
			<path class="st6" d="M367.7,85.6c1-1.1,1.4-2.7,1.4-4.7V68.8c0-1,0.9-1.9,1.9-1.9c1.1,0,1.9,0.8,1.9,1.9v12.6
				c0,2.7-0.7,5-2.2,6.6c-1.7,2-4.4,3-7.9,3c-3.4,0-6.1-1.1-7.9-3c-1.4-1.6-2.2-3.9-2.2-6.6V68.8c0-1,0.9-1.9,1.9-1.9
				c1.1,0,1.9,0.8,1.9,1.9v12.1c0,2,0.5,3.6,1.4,4.7c1.1,1.3,2.7,1.9,4.7,1.9C365,87.5,366.6,86.9,367.7,85.6z"/>
			<path class="st6" d="M388.1,81.3c-1.7-1.2-3.3-2.5-4.8-3.9c-0.9-0.8-1.7-1.6-2.4-2.4v14.3c0,1-0.8,1.8-1.8,1.8
				c-1,0-1.9-0.8-1.9-1.8V68.7c0-1,0.8-1.8,1.9-1.8c1,0,1.8,0.8,1.8,1.8c0,2.3,3.5,5.1,7.4,8c1.6,1.2,3.2,2.6,4.8,4
				c0.9,0.8,1.7,1.6,2.4,2.4V68.7c0-1,0.8-1.8,1.9-1.8c1,0,1.8,0.8,1.8,1.8v20.6c0,1-0.8,1.8-1.8,1.8c-1,0-1.9-0.9-1.9-1.8
				C395.5,86.8,390.9,83.4,388.1,81.3z"/>
			<path class="st6" d="M421.1,88c-2.7,2.2-6,2.7-9.1,2.7h-6.6c-1.1,0-1.9-0.8-1.9-1.9V69.1c0-1,0.9-1.9,1.9-1.9h7.1
				c3.8,0,7.1,0.8,9.7,3.7c1.7,1.8,2.8,4.5,2.8,8.1C424.9,83.2,423.4,86.1,421.1,88z M407,87.5h4.4c2.7,0,4.9-0.6,6.6-2
				c1.8-1.4,2.8-3.5,2.8-6.5c0-2.6-0.8-4.5-2-5.9c-1.6-1.8-4.1-2.6-7.2-2.6H407V87.5z"/>
			<g>
				<g>
					<path class="st6" d="M274.9,89.2c0-0.1,0-0.2,0-0.2c-0.2-2.4-2-4.4-3.7-6.1c-0.3-0.3-0.8-0.7-1.3-1.2c0.8-0.2,1.6-0.6,2.4-1.3
						c1.7-1.4,2.7-3.3,2.7-5.7c0-2.6-1-4.7-2.7-5.9c-1.6-1.1-3.6-1.4-5.8-1.4h-8.2c-0.7,0-1.3,0.4-1.6,0.9c-0.2,0.3-0.3,0.6-0.3,1
						v20.1c0,0.3,0.1,0.6,0.2,0.8c0.3,0.6,1,1,1.7,1c1,0,1.9-0.8,1.9-1.9v-7.1h4.8c0.5,0.4,1,0.8,1.5,1.2c2.4,1.9,4.9,4.2,4.9,6
						c0,0.9,0.8,1.7,1.8,1.8c0,0,0,0,0.1,0C274.2,91.1,275,90.3,274.9,89.2C275,89.3,274.9,89.2,274.9,89.2z M266.6,78.8
						c-0.2,0-0.4,0-0.6,0h-5.3h-0.6v-0.5v-4.7v-3h5.9c1.3,0,2.4,0.1,3.4,0.7c1,0.7,1.7,1.7,1.7,3.4c0,1.7-0.7,2.8-1.7,3.4
						C268.5,78.6,267.6,78.7,266.6,78.8z"/>
				</g>
			</g>
			<g>
				<g>
					<path class="st6" d="M322.9,89.2c0-0.1,0-0.2,0-0.2c-0.2-2.4-2-4.4-3.7-6.1c-0.3-0.3-0.8-0.7-1.3-1.2c0.8-0.2,1.6-0.6,2.4-1.3
						c1.7-1.4,2.7-3.3,2.7-5.7c0-2.6-1-4.7-2.7-5.9c-1.6-1.1-3.6-1.4-5.8-1.4h-8.2c-0.7,0-1.3,0.4-1.6,0.9c-0.2,0.3-0.3,0.6-0.3,1
						v20.1c0,0.3,0.1,0.6,0.2,0.8c0.3,0.6,1,1,1.7,1c1,0,1.9-0.8,1.9-1.9v-7.1h4.8c0.5,0.4,1,0.8,1.5,1.2c2.4,1.9,4.9,4.2,4.9,6
						c0,0.9,0.8,1.7,1.8,1.8c0,0,0,0,0.1,0C322.2,91.1,322.9,90.3,322.9,89.2C322.9,89.3,322.9,89.2,322.9,89.2z M314.6,78.8
						c-0.2,0-0.4,0-0.6,0h-5.3h-0.6v-0.5v-4.7v-3h5.9c1.3,0,2.4,0.1,3.4,0.7c1,0.7,1.7,1.7,1.7,3.4c0,1.7-0.7,2.8-1.7,3.4
						C316.5,78.6,315.6,78.7,314.6,78.8z"/>
				</g>
			</g>
		</g>
	</g>
</g>
</svg>
